<?xml version="1.0" encoding="UTF-8"?>
<svg width="512px" height="512px" viewBox="0 0 512 512" version="1.1" xmlns="http://www.w3.org/2000/svg" xmlns:xlink="http://www.w3.org/1999/xlink">
    <!-- Generator: Sketch 56.2 (81672) - https://sketch.com -->
    <title>alipay</title>
    <desc>Created with Sketch.</desc>
    <g id="alipay" stroke="none" stroke-width="1" fill="none" fill-rule="evenodd">
        <rect id="矩形" fill="#0099E5" x="422" y="0" width="90" height="102"></rect>
        <rect id="矩形" fill="#0099E5" x="422" y="442" width="90" height="70"></rect>
        <rect id="矩形" fill="#0099E5" x="0" y="417" width="90" height="95"></rect>
        <rect id="矩形" fill="#0099E5" x="0" y="0" width="90" height="95"></rect>
        <path d="M431.702817,0.00111304348 C402.224974,0.00111304348 285.090133,0.00111304348 80.2982957,0.00111304348 C35.8967652,0.00111304348 0.00222608696,35.8978783 0.00222608696,80.2982957 L0.00222608696,431.702817 C0.00222608696,476.102122 35.8967652,512 80.2982957,512 L431.70393,512 C475.725913,512 511.429009,476.48167 511.998887,432.458574 C459.475478,403.176626 385.6128,363.499965 315.887304,331.384209 C279.237009,381.63367 219.727026,423.954922 146.03687,423.954922 C65.3612522,423.954922 38.9175652,372.18393 35.1321043,336.674504 C30.5964522,292.090435 52.1382957,243.531687 148.869565,243.531687 C189.304209,243.531687 239.555896,255.245357 294.162922,272.057878 C313.053496,237.669287 324.38873,203.098157 324.38873,203.098157 L120.732939,203.098157 L120.732939,184.0128 L225.966748,184.0128 L225.966748,148.309704 L100.891826,148.309704 L100.891826,126.584209 L225.966748,126.584209 L225.966748,68.9608348 L284.161113,68.9608348 L284.161113,126.584209 L409.234922,126.584209 L409.234922,148.309704 L284.147757,148.309704 L284.147757,184.0128 L385.599443,184.0128 C385.599443,184.0128 368.217043,237.291965 341.770017,287.920974 C397.689322,307.00633 456.066226,329.110261 511.621565,348.193391 L511.621565,80.2982957 C511.80633,36.0815304 475.919583,0.00111304348 431.702817,0.00111304348 Z M54.0349217,332.512835 C55.168,355.565078 65.7485913,393.920557 133.954783,393.920557 C193.462539,393.920557 239.761809,348.570713 268.663096,310.607026 C217.658991,289.256626 172.115478,274.709148 143.588174,274.709148 C66.5032348,274.709148 52.9040696,312.489183 54.0349217,332.512835 Z" id="形状" fill="#0099E5" fill-rule="nonzero"></path>
    </g>
</svg>