<?xml version="1.0" encoding="UTF-8"?>
<svg width="512px" height="512px" viewBox="0 0 512 512" version="1.1" xmlns="http://www.w3.org/2000/svg" xmlns:xlink="http://www.w3.org/1999/xlink">
    <!-- Generator: Sketch 56.2 (81672) - https://sketch.com -->
    <title>wechat</title>
    <desc>Created with Sketch.</desc>
    <g id="wechat" stroke="none" stroke-width="1" fill="none" fill-rule="evenodd">
        <rect id="矩形" fill="#00C70A" fill-rule="nonzero" x="0" y="0" width="512" height="512"></rect>
        <path d="M402,369 C425,352 440,327 440,299 C440,248 390,207 329,207 C268,207 219,248 219,299 C219,350 268,391 329,391 C342,391 354,389 365,386 C369,385 373,386 374,387 L399,401 C402,403 405,401 404,397 L398,375 C398,372 400,370 402,369 M292,284 C285.914417,285.611871 279.469861,283.252232 275.863899,278.091856 C272.257937,272.931479 272.257937,266.068521 275.863899,260.908144 C279.469861,255.747768 285.914417,253.388129 292,255 C298.578299,256.742375 303.159427,262.694864 303.159427,269.5 C303.159427,276.305136 298.578299,282.257625 292,284 M366,284 C359.914417,285.611871 353.469861,283.252232 349.863899,278.091856 C346.257937,272.931479 346.257937,266.068521 349.863899,260.908144 C353.469861,255.747768 359.914417,253.388129 366,255 C372.578299,256.742375 377.159427,262.694864 377.159427,269.5 C377.159427,276.305136 372.578299,282.257625 366,284" id="形状" fill="#FFFFFF" fill-rule="nonzero"></path>
        <path d="M205,105 C132,105 73,155 73,216 C73,249 90,279 118,299 C121,301 123,304 122,309 L115,333 C114,338 118,340 121,339 L151,322 C154,320 158,319 162,320 C188,328 210,326 213,326 C189,242 272,194 336,198 C326,146 271,105 205,105 M161,198 C153.752113,199.744908 146.178636,196.841382 141.954801,190.698436 C137.730966,184.55549 137.730966,176.44451 141.954801,170.301564 C146.178636,164.158618 153.752113,161.255092 161,163 C169.087166,164.946962 174.786925,172.181772 174.786925,180.5 C174.786925,188.818228 169.087166,196.053038 161,198 M250,198 C242.752113,199.744908 235.178636,196.841382 230.954801,190.698436 C226.730966,184.55549 226.730966,176.44451 230.954801,170.301564 C235.178636,164.158618 242.752113,161.255092 250,163 C258.087166,164.946962 263.786925,172.181772 263.786925,180.5 C263.786925,188.818228 258.087166,196.053038 250,198" id="形状" fill="#FFFFFF" fill-rule="nonzero"></path>
    </g>
</svg>